<svg xmlns="http://www.w3.org/2000/svg" width="2732" height="2732" viewBox="0 0 2732 2732">
  <rect width="2732" height="2732" fill="#e07d2a"/>
  <g transform="translate(2732,2732) scale(0.5) translate(-2732,-2732)">
    <g transform="translate(1216,1050) scale(25) translate(-12,-12)">
      <path d="M14.7 6.3a1 1 0 0 0 0 1.4l1.6 1.6a1 1 0 0 0 1.4 0l3.77-3.77a6 6 0 0 1-7.94 7.94l-6.91 6.91a2.12 2.12 0 0 1-3-3l6.91-6.91a6 6 0 0 1 7.94-7.94l-3.76 3.76z"
            fill="white"/>
    </g>
    <text x="1366" y="1780" text-anchor="middle" font-family="Inter,-apple-system,sans-serif" font-size="180" font-weight="700" fill="white" letter-spacing="-4">Mainlync</text>
  </g>
</svg>